<?xml version="1.0" standalone="no"?>
<!DOCTYPE svg PUBLIC "-//W3C//DTD SVG 20010904//EN"
 "http://www.w3.org/TR/2001/REC-SVG-20010904/DTD/svg10.dtd">
<svg version="1.0" xmlns="http://www.w3.org/2000/svg"
 width="924.000000pt" height="257.000000pt" viewBox="0 0 924.000000 257.000000"
 preserveAspectRatio="xMidYMid meet">

<g transform="translate(0.000000,257.000000) scale(0.100000,-0.100000)"
fill="#000000" stroke="none">
<path d="M9013 2559 c-72 -22 -122 -110 -109 -193 15 -90 74 -139 166 -139 99
0 157 54 166 155 7 65 -24 133 -72 160 -38 22 -109 30 -151 17z m127 -44 c37
-19 63 -68 63 -120 0 -108 -98 -167 -199 -119 -86 41 -90 193 -6 238 35 20
105 20 142 1z"/>
<path d="M9007 2483 c-4 -3 -7 -44 -7 -90 0 -76 2 -83 20 -83 15 0 20 7 20 25
0 20 5 25 23 25 16 0 28 -9 35 -25 7 -15 20 -25 32 -25 19 0 20 1 5 24 -14 21
-14 26 1 53 22 38 12 80 -22 93 -29 11 -97 13 -107 3z m107 -46 c9 -15 7 -21
-8 -33 -11 -8 -30 -14 -43 -14 -20 0 -23 5 -23 36 0 34 1 35 31 32 18 -2 37
-11 43 -21z"/>
<path d="M187 2252 l-137 -137 0 -643 0 -642 550 0 550 0 0 160 0 160 -350 0
-351 0 3 158 3 157 318 3 317 2 0 155 0 155 -317 2 -318 3 0 145 0 145 343 3
342 2 0 155 0 155 -408 0 -407 0 -138 -138z"/>
<path d="M1340 1610 l0 -780 540 0 540 0 0 175 0 175 -340 0 -340 0 0 605 0
605 -200 0 -200 0 0 -780z"/>
<path d="M2632 1613 l3 -778 380 0 c325 1 392 3 465 19 166 34 307 109 395
209 60 68 129 206 152 304 14 60 18 118 18 253 -1 205 -12 264 -81 407 -79
165 -205 267 -409 329 l-90 28 -418 4 -417 3 2 -778z m805 403 c151 -69 209
-193 201 -431 -6 -167 -26 -225 -108 -306 -81 -82 -141 -99 -341 -99 l-149 0
0 436 0 436 168 -4 c159 -3 170 -5 229 -32z"/>
<path d="M4262 1613 l3 -778 203 -3 202 -2 0 250 0 250 82 0 c106 0 155 -22
196 -88 16 -26 69 -129 117 -229 l88 -183 224 0 c123 0 223 3 223 6 0 4 -55
115 -122 247 -79 153 -138 257 -165 287 l-41 46 66 50 c117 88 179 205 189
359 11 168 -39 317 -140 412 -62 59 -125 93 -229 125 -69 21 -94 22 -486 26
l-412 3 2 -778z m760 418 c81 -39 116 -108 103 -202 -9 -67 -40 -109 -104
-141 -52 -27 -61 -28 -203 -28 l-148 0 0 201 0 201 153 -4 c133 -3 158 -7 199
-27z"/>
<path d="M5810 1873 c0 -475 2 -526 20 -613 49 -239 187 -385 420 -447 92 -24
357 -24 454 0 230 58 376 215 426 457 18 87 20 138 20 608 l0 512 -200 0 -200
0 0 -503 c0 -550 -3 -582 -58 -662 -15 -22 -48 -51 -72 -65 -39 -22 -57 -25
-140 -25 -86 0 -100 3 -142 28 -57 33 -97 96 -115 181 -9 45 -13 195 -13 554
l0 492 -200 0 -200 0 0 -517z"/>
<path d="M7390 2220 l0 -170 243 -2 242 -3 3 -607 2 -608 200 0 200 0 2 608 3
607 243 3 242 2 0 170 0 170 -690 0 -690 0 0 -170z"/>
<path d="M2257 486 c-67 -18 -127 -63 -157 -116 -20 -37 -25 -59 -25 -120 0
-64 4 -82 28 -122 46 -79 131 -119 258 -120 124 -1 209 39 257 121 23 39 27
57 27 121 -1 114 -40 177 -139 221 -61 27 -182 34 -249 15z m198 -120 c40 -17
65 -60 65 -115 0 -82 -38 -118 -134 -128 -112 -11 -186 38 -186 123 0 92 49
133 158 134 34 0 78 -6 97 -14z"/>
<path d="M5637 490 c-129 -33 -197 -115 -197 -237 1 -117 55 -193 164 -229 61
-21 184 -21 249 -1 86 27 157 99 157 160 0 26 -1 27 -60 27 -56 0 -61 -2 -70
-26 -16 -41 -89 -67 -171 -62 -79 6 -115 25 -135 73 -28 68 -13 123 45 162 27
18 48 23 103 23 83 0 133 -19 156 -60 16 -28 21 -30 75 -30 54 0 57 1 57 25 0
57 -55 120 -134 155 -55 25 -178 35 -239 20z"/>
<path d="M6375 491 c-83 -22 -125 -62 -132 -124 -11 -97 39 -134 217 -161 106
-17 138 -32 127 -60 -21 -55 -214 -44 -232 13 -5 18 -14 21 -67 21 l-60 0 7
-37 c14 -79 70 -119 179 -133 122 -15 236 15 279 72 24 32 26 108 3 142 -28
43 -61 57 -178 77 -156 26 -178 37 -142 73 11 12 36 16 91 16 70 0 77 -2 103
-30 24 -26 35 -30 79 -30 49 0 51 1 51 28 0 44 -36 91 -87 114 -51 22 -185 33
-238 19z"/>
<path d="M206 482 c-12 -20 -206 -456 -206 -464 0 -4 29 -8 64 -8 l63 0 17 45
18 45 114 0 115 0 20 -45 20 -45 59 0 c44 0 60 4 60 14 0 11 -126 302 -190
439 -13 26 -17 27 -81 27 -37 0 -70 -4 -73 -8z m109 -195 c15 -37 26 -70 23
-73 -3 -3 -33 -4 -66 -2 l-60 3 31 77 c18 43 34 74 38 70 3 -4 19 -37 34 -75z"/>
<path d="M730 331 c0 -154 1 -160 28 -212 23 -45 37 -59 85 -83 97 -50 228
-36 301 32 56 53 66 91 66 265 l0 157 -59 0 -60 0 -3 -155 c-3 -154 -3 -155
-31 -182 -24 -24 -35 -28 -87 -28 -52 0 -63 4 -87 28 -28 27 -28 28 -31 182
l-3 155 -60 0 -59 0 0 -159z"/>
<path d="M1420 435 l0 -55 90 0 90 0 0 -185 0 -185 60 0 60 0 0 185 0 185 90
0 90 0 0 55 0 55 -240 0 -240 0 0 -55z"/>
<path d="M2880 250 l0 -240 65 0 64 0 3 147 3 148 65 -147 65 -148 61 0 61 0
63 143 c34 78 66 146 71 152 5 5 9 -54 9 -143 l0 -152 60 0 60 0 0 240 0 240
-87 0 -88 0 -70 -161 c-38 -88 -73 -162 -76 -165 -4 -2 -40 70 -80 161 l-74
165 -87 0 -88 0 0 -240z"/>
<path d="M3841 264 c-55 -125 -101 -233 -101 -240 0 -10 16 -14 60 -14 l59 0
20 45 20 45 115 0 114 0 18 -45 17 -45 63 0 c35 0 64 3 64 8 0 4 -46 112 -102
239 l-103 232 -71 1 -71 0 -102 -226z m239 -51 c0 -2 -29 -3 -65 -3 -36 0 -65
4 -65 9 0 5 9 31 21 58 11 26 25 59 31 73 9 23 12 19 44 -54 19 -44 34 -81 34
-83z"/>
<path d="M4400 435 l0 -55 85 0 85 0 2 -182 3 -183 63 -3 62 -3 0 186 0 185
90 0 90 0 0 55 0 55 -240 0 -240 0 0 -55z"/>
<path d="M5082 253 l3 -238 63 -3 62 -3 0 241 0 240 -65 0 -65 0 2 -237z"/>
</g>
</svg>
