<?xml version="1.0" encoding="UTF-8" standalone="no"?>
<!-- Created with Inkscape (http://www.inkscape.org/) -->
<svg
    xmlns:inkscape="http://www.inkscape.org/namespaces/inkscape"
    xmlns:rdf="http://www.w3.org/1999/02/22-rdf-syntax-ns#"
    xmlns="http://www.w3.org/2000/svg"
    xmlns:cc="http://creativecommons.org/ns#"
    xmlns:dc="http://purl.org/dc/elements/1.1/"
    xmlns:sodipodi="http://sodipodi.sourceforge.net/DTD/sodipodi-0.dtd"
    xmlns:svg="http://www.w3.org/2000/svg"
    xmlns:ns1="http://sozi.baierouge.fr"
    xmlns:xlink="http://www.w3.org/1999/xlink"
    id="svg2"
    sodipodi:docname="Largo43_attention.svg"
    viewBox="0 0 126.92 111.25"
    sodipodi:version="0.32"
    version="1.0"
    inkscape:output_extension="org.inkscape.output.svg.inkscape"
    inkscape:version="0.46"
  >
  <sodipodi:namedview
      id="base"
      bordercolor="#666666"
      inkscape:pageshadow="2"
      inkscape:window-y="-8"
      pagecolor="#ffffff"
      inkscape:window-height="1000"
      inkscape:zoom="5.537958"
      inkscape:window-x="-8"
      showgrid="false"
      borderopacity="1.0"
      inkscape:current-layer="layer1"
      inkscape:cx="82.855308"
      inkscape:cy="971.56973"
      inkscape:window-width="1680"
      inkscape:pageopacity="0.0"
      inkscape:document-units="px"
  />
  <g
      id="layer1"
      inkscape:label="Calque 1"
      inkscape:groupmode="layer"
      transform="translate(-34.081 -23.519)"
    >
    <g
        id="g3252"
        inkscape:export-ydpi="90"
        inkscape:export-xdpi="90"
      >
      <path
          id="path2383"
          style="stroke-linejoin:round;stroke:#000000;stroke-linecap:round;stroke-miterlimit:24.3;stroke-width:27.82;fill:#ffff00"
          sodipodi:type="star"
          d="m353.73 277.03h-162.63-162.64l81.32-140.84 81.32-140.85 81.31 140.85 81.32 140.84z"
          sodipodi:r1="187.79253"
          inkscape:flatsided="false"
          transform="matrix(.35945 0 0 .35945 28.849 30.193)"
          sodipodi:arg2="1.5707963"
          sodipodi:arg1="0.52359878"
          inkscape:randomized="0"
          sodipodi:cy="183.1349"
          sodipodi:cx="191.09729"
          inkscape:rounded="0"
          sodipodi:r2="93.896263"
          sodipodi:sides="3"
      />
      <g
          id="g3163"
          transform="translate(-.51074 -1.0215)"
        >
        <path
            id="path3155"
            sodipodi:nodetypes="czzzzzzzzzzzzzzzz"
            style="fill:#000000"
            transform="matrix(1.4167 0 0 1.5763 -38.678 -62.219)"
            d="m94.938 108.41c-0.648 0.08-1.421 0.45-2.024 0.81-0.603 0.35-1.144 0.75-1.55 1.25-0.406 0.51-0.497 1.16-0.644 1.74-0.146 0.58-0.195 1.05 0.061 1.7 0.256 0.64 0.729 1.5 1.274 2.02 0.546 0.52 0.933 1.06 1.656 1.29 0.724 0.23 1.569 0.54 2.289 0.66 0.72 0.11 1.251-0.1 1.962-0.29 0.711-0.18 1.626-0.52 2.218-0.91 0.6-0.4 0.93-0.85 1.29-1.31 0.36-0.47 0.47-0.91 0.5-1.48 0.03-0.56-0.08-1.12-0.49-1.64-0.4-0.52-0.83-1.19-1.3-1.73-0.474-0.54-1.038-1.03-1.646-1.32-0.608-0.3-1.298-0.54-1.904-0.69-0.605-0.15-1.045-0.19-1.692-0.1z"
        />
        <path
            id="path3157"
            sodipodi:nodetypes="czzzzzzzzzzzzzzzzzzz"
            style="fill:#000000"
            d="m95.757 60.268c-0.917 0.14-2.466 0.313-3.597 0.656-1.131 0.344-2.249 0.99-3.103 2.094-0.855 1.104-1.503 2.472-1.975 4.156-0.472 1.685-0.773 2.964-0.706 5.375s0.496 5.699 0.988 8.719 0.988 6.591 1.622 9.594 1.717 5.673 2.532 7.784c0.814 2.114 1.57 3.844 2.319 4.854s1.059 1.4 1.85 1.83c0.79 0.43 1.88 0.73 2.835 0.66 0.955-0.08 1.898-1.57 2.618-2.39 0.72-0.83 1.75-4.096 2.56-7.117 0.81-3.02 1.61-4.943 2.65-9.884 1.05-4.94 2.13-12.305 2.63-15.581 0.49-3.276 0.24-3.088-0.25-4.551-0.49-1.462-1.38-2.365-2.22-3.199-0.85-0.834-1.32-1.335-2.8-1.794-1.49-0.459-2.55-0.772-3.872-0.935-1.327-0.163-3.163-0.411-4.081-0.271z"
        />
      </g
      >
    </g
    >
  </g
  >
  <metadata
    >
    <rdf:RDF
      >
      <cc:Work
        >
        <dc:format
          >image/svg+xml</dc:format
        >
        <dc:type
            rdf:resource="http://purl.org/dc/dcmitype/StillImage"
        />
        <cc:license
            rdf:resource="http://creativecommons.org/licenses/publicdomain/"
        />
        <dc:publisher
          >
          <cc:Agent
              rdf:about="http://openclipart.org/"
            >
            <dc:title
              >Openclipart</dc:title
            >
          </cc:Agent
          >
        </dc:publisher
        >
        <dc:title
          >attention</dc:title
        >
        <dc:date
          >2006-12-26T00:00:00</dc:date
        >
        <dc:description
        />
        <dc:source
          >https://openclipart.org/detail/24920/-by--24920</dc:source
        >
        <dc:creator
          >
          <cc:Agent
            >
            <dc:title
              >Largo43</dc:title
            >
          </cc:Agent
          >
        </dc:creator
        >
      </cc:Work
      >
      <cc:License
          rdf:about="http://creativecommons.org/licenses/publicdomain/"
        >
        <cc:permits
            rdf:resource="http://creativecommons.org/ns#Reproduction"
        />
        <cc:permits
            rdf:resource="http://creativecommons.org/ns#Distribution"
        />
        <cc:permits
            rdf:resource="http://creativecommons.org/ns#DerivativeWorks"
        />
      </cc:License
      >
    </rdf:RDF
    >
  </metadata
  >
</svg>
